<svg width="147" height="124" viewBox="0 0 147 124" fill="none" xmlns="http://www.w3.org/2000/svg">
<path fill-rule="evenodd" clip-rule="evenodd" d="M40.3355 89.2061L113.566 123.529L146.515 53.2276L73.2853 18.905L40.3355 89.2061Z" fill="#FFE6BF"/>
<path fill-rule="evenodd" clip-rule="evenodd" d="M-4.94448e-05 70.3011L40.3369 89.2069L73.2867 18.9057L32.9497 0L-4.94448e-05 70.3011Z" fill="#FFDFB1"/>
<path fill-rule="evenodd" clip-rule="evenodd" d="M26.3512 14.0784L66.6882 32.9841L67.6532 30.9253L27.3162 12.0195L26.3512 14.0784Z" fill="#FFC56E"/>
<path fill-rule="evenodd" clip-rule="evenodd" d="M66.6868 32.9834L139.917 67.3059L140.882 65.2471L67.6517 30.9246L66.6868 32.9834Z" fill="#FFDAA4"/>
<path fill-rule="evenodd" clip-rule="evenodd" d="M112.058 66.5265L85.1107 53.8963C84.5993 53.6566 84.3725 53.0641 84.6026 52.5732L84.627 52.5211C84.8571 52.0302 85.4569 51.827 85.9682 52.0666L112.916 64.6968C113.427 64.9365 113.656 65.5283 113.426 66.0192L113.402 66.0713C113.172 66.5622 112.57 66.7662 112.058 66.5265Z" fill="#FFDAA4"/>
</svg>
