<svg width="249" height="333" viewBox="0 0 249 333" fill="none" xmlns="http://www.w3.org/2000/svg">
<path fill-rule="evenodd" clip-rule="evenodd" d="M137.538 171.387L156.327 310.74L150.771 312.212L131.98 172.86L137.538 171.387Z" fill="#A9A9A9"/>
<path fill-rule="evenodd" clip-rule="evenodd" d="M62.6569 191.227L64.7703 206.899L81.4483 330.58L75.8902 332.053L59.1314 207.76L57.0989 192.7L62.6569 191.227Z" fill="#A9A9A9"/>
<path fill-rule="evenodd" clip-rule="evenodd" d="M173.273 306.249L167.715 307.722L160.43 289.691L151.791 268.312L123.377 197.988L115.036 177.348L120.594 175.875L129.173 197.107L148.709 245.456L157.347 266.835L173.273 306.249Z" fill="#A9A9A9"/>
<path fill-rule="evenodd" clip-rule="evenodd" d="M248.152 286.409L242.594 287.881L201.707 186.689L201.705 186.69L189.915 157.507L195.473 156.034L207.492 185.779L248.152 286.409Z" fill="#A9A9A9"/>
<path fill-rule="evenodd" clip-rule="evenodd" d="M55.0979 184.052L60.6559 182.579L39.04 101.001L33.4819 102.474L55.0979 184.052Z" fill="#FFE5BF"/>
<path fill-rule="evenodd" clip-rule="evenodd" d="M130.615 164.042L136.171 162.57L114.555 80.9918L108.999 82.4641L130.615 164.042Z" fill="#FFE5BF"/>
<path fill-rule="evenodd" clip-rule="evenodd" d="M195.533 146.841L119.178 167.073C121.644 166.419 124.153 167.809 124.78 170.177C125.408 172.545 123.916 174.993 121.45 175.647L197.805 155.415C200.271 154.761 201.763 152.313 201.136 149.945C200.508 147.577 198 146.187 195.533 146.841Z" fill="#FFE5BF"/>
<path fill-rule="evenodd" clip-rule="evenodd" d="M124.78 170.179C124.153 167.811 121.646 166.421 119.179 167.074L60.775 182.55L53.2518 184.543C50.7854 185.197 49.2942 187.647 49.9216 190.014C50.549 192.382 53.0572 193.771 55.5236 193.117L63.0468 191.124L121.451 175.648C123.917 174.995 125.407 172.547 124.78 170.179Z" fill="#FFE6BF"/>
<path fill-rule="evenodd" clip-rule="evenodd" d="M102.83 18.3974L12.6754 42.2858C9.23804 43.1966 7.15977 46.6111 8.03418 49.911L21.1346 99.3519C22.009 102.652 25.5049 104.588 28.9423 103.677L119.097 79.7884C122.534 78.8776 124.613 75.4648 123.739 72.1648L110.638 22.7239C109.764 19.4239 106.267 17.4866 102.83 18.3974Z" fill="#FFDFB1"/>
<path fill-rule="evenodd" clip-rule="evenodd" d="M62.6569 191.227L64.7703 206.899C62.7044 207.214 60.8173 207.501 59.1313 207.76L57.0989 192.7L62.6569 191.227Z" fill="#7B7B7B"/>
<path fill-rule="evenodd" clip-rule="evenodd" d="M120.594 175.875L129.173 197.107C127.231 197.402 125.298 197.697 123.376 197.988L115.036 177.348L120.594 175.875Z" fill="#7B7B7B"/>
<path fill-rule="evenodd" clip-rule="evenodd" d="M207.491 185.779C205.649 186.07 203.717 186.374 201.706 186.689L189.915 157.507L195.473 156.034L207.491 185.779Z" fill="#7B7B7B"/>
<path fill-rule="evenodd" clip-rule="evenodd" d="M33.4823 102.474L39.0404 101.001L42.0263 112.27L36.3117 113.152L33.4823 102.474Z" fill="#FFDFB1"/>
<path fill-rule="evenodd" clip-rule="evenodd" d="M114.556 80.9917L119.668 100.285L113.955 101.167L108.999 82.464L114.556 80.9917Z" fill="#FFDFB1"/>
</svg>
