<svg width="103" height="84" viewBox="0 0 103 84" fill="none" xmlns="http://www.w3.org/2000/svg">
<path fill-rule="evenodd" clip-rule="evenodd" d="M8.77536 18.1487L0.784265 62.7257C0.351092 65.142 2.22434 67.4992 4.96715 67.9909L85.1314 82.3616C87.8742 82.8533 90.4497 81.2936 90.8828 78.8772L98.8739 34.3002L8.77536 18.1487Z" fill="#89AEFF"/>
<path fill-rule="evenodd" clip-rule="evenodd" d="M20.858 1.58269L93.2979 14.5686C96.2861 15.1043 98.0834 19.0242 97.3129 23.3223L90.4501 61.6055C89.6794 65.9048 86.6323 68.9563 83.6441 68.4206L11.2043 55.4347C8.21606 54.899 6.4187 50.9791 7.18941 46.6798L14.0523 8.39659C14.8228 4.09847 17.8698 1.04701 20.858 1.58269Z" fill="#E2F8FF"/>
<path fill-rule="evenodd" clip-rule="evenodd" d="M85.1319 82.3618L4.96631 67.9909C2.2235 67.4992 0.351565 65.1423 0.784738 62.7259L8.77583 18.1489L48.6176 55.27L98.8744 34.3005L90.8833 78.8774C90.4501 81.2938 87.8747 82.8535 85.1319 82.3618Z" fill="#FFC56E"/>
<path fill-rule="evenodd" clip-rule="evenodd" d="M73.9054 28.2355L34.2962 21.1349C33.0521 20.9119 32.2034 19.8432 32.3999 18.7472C32.5961 17.6523 33.7635 16.9439 35.0076 17.1669L74.6167 24.2674C75.8595 24.4902 76.7094 25.5603 76.5131 26.6552C76.3166 27.7512 75.1482 28.4583 73.9054 28.2355Z" fill="#89AEFF"/>
<path fill-rule="evenodd" clip-rule="evenodd" d="M62.5015 35.3116L42.5313 31.7316C41.2872 31.5086 40.4385 30.4399 40.6349 29.3439C40.8312 28.249 41.9985 27.5406 43.2426 27.7636L63.2128 31.3435C64.4569 31.5665 65.3054 32.6364 65.1092 33.7313C64.9127 34.8273 63.7456 35.5346 62.5015 35.3116Z" fill="#89AEFF"/>
</svg>
