<svg width="198" height="218" viewBox="0 0 198 218" fill="none" xmlns="http://www.w3.org/2000/svg">
<path fill-rule="evenodd" clip-rule="evenodd" d="M137.915 33.2603L194.918 155.226C196.302 158.187 194.849 161.789 191.671 163.274L80.8042 215.089C77.6283 216.574 73.9315 215.379 72.5475 212.418L2.50573 62.5533C1.12181 59.5922 2.57564 55.9881 5.75157 54.5038L86.6797 16.6805L137.915 33.2603Z" fill="#FE9ECC"/>
<path fill-rule="evenodd" clip-rule="evenodd" d="M137.915 33.2602L107.978 47.252C104.8 48.737 101.103 47.5419 99.7195 44.5808L86.6797 16.6804L137.915 33.2602Z" fill="#FFD9E8"/>
<path fill-rule="evenodd" clip-rule="evenodd" d="M155.371 122.878L121.313 138.796C119.894 139.459 118.244 138.925 117.626 137.603L114.132 130.127C113.515 128.807 114.164 127.198 115.582 126.535L149.64 110.618C151.059 109.955 152.709 110.489 153.326 111.809L156.82 119.285C157.438 120.607 156.789 122.215 155.371 122.878Z" fill="#FFD9E8"/>
<path fill-rule="evenodd" clip-rule="evenodd" d="M151.722 146.999L129.911 157.193C128.493 157.855 126.842 157.322 126.224 156L122.73 148.524C122.113 147.204 122.763 145.595 124.18 144.932L145.992 134.738C147.409 134.076 149.061 134.609 149.678 135.93L153.172 143.405C153.79 144.728 153.139 146.337 151.722 146.999Z" fill="#FFD9E8"/>
<path fill-rule="evenodd" clip-rule="evenodd" d="M71.4684 51.328L26.2999 72.4383C24.8812 73.1014 23.2311 72.5674 22.6132 71.2453C21.996 69.9246 22.6441 68.3149 24.0628 67.6518L69.2314 46.5414C70.6486 45.8791 72.3008 46.4137 72.918 47.7345C73.5359 49.0566 72.8856 50.6656 71.4684 51.328Z" fill="#FFD9E8"/>
<path fill-rule="evenodd" clip-rule="evenodd" d="M54.0551 72.4538L31.282 83.0973C29.8633 83.7603 28.2132 83.2264 27.5953 81.9043C26.9781 80.5835 27.6262 78.9738 29.0449 78.3107L51.818 67.6673C53.2367 67.0043 54.8874 67.5396 55.5047 68.8603C56.1226 70.1824 55.4738 71.7908 54.0551 72.4538Z" fill="#FFD9E8"/>
<path fill-rule="evenodd" clip-rule="evenodd" d="M83.9954 145.183C86.8328 143.857 90.1458 144.929 91.381 147.572C92.6168 150.216 91.3142 153.446 88.4767 154.772C85.6393 156.098 82.3263 155.026 81.0905 152.382C79.8553 149.739 81.158 146.51 83.9954 145.183ZM94.1889 154.811C96.0222 152.176 96.4863 148.792 95.1031 145.833C92.9741 141.277 87.2638 139.429 82.3743 141.715C77.4848 144 75.2395 149.566 77.3684 154.121C78.7517 157.081 81.6455 158.895 84.8416 159.18C78.7119 164.228 76.262 172.302 79.4046 179.026C79.8528 179.985 81.0486 180.371 82.0762 179.891C83.1037 179.41 83.5749 178.245 83.1267 177.286C80.2081 171.042 83.6774 163.231 90.8612 159.874C98.0436 156.517 106.262 158.865 109.181 165.109C109.629 166.068 110.825 166.454 111.853 165.974C112.88 165.494 113.351 164.329 112.903 163.37C109.76 156.646 101.995 153.346 94.1889 154.811Z" fill="#FFD9E8"/>
</svg>
