<svg width="126" height="115" viewBox="0 0 126 115" fill="none" xmlns="http://www.w3.org/2000/svg">
<path fill-rule="evenodd" clip-rule="evenodd" d="M7.35356 12.8504L35.0869 9.48238L46.2536 21.229L106.301 13.9368C110.362 13.4436 114.099 16.718 114.649 21.2472L124.349 92.0618C124.899 96.591 122.052 100.663 117.991 101.156L19.5297 113.114C15.4689 113.607 11.7302 110.334 11.1802 105.805L0.996219 21.9467C0.445958 17.4156 3.29274 13.3435 7.35356 12.8504Z" fill="#FFC56E"/>
<path fill-rule="evenodd" clip-rule="evenodd" d="M19.8442 36.6148L98.7367 27.034C101.988 26.6391 105.002 29.4128 105.466 33.2318L109.595 67.2285C110.058 71.0457 107.796 74.4602 104.544 74.855L25.6517 84.4359C22.3984 84.831 19.3862 82.0571 18.9226 78.2399L14.794 44.2432C14.3302 40.4242 16.5909 37.0099 19.8442 36.6148Z" fill="#D2DCFF"/>
<path fill-rule="evenodd" clip-rule="evenodd" d="M11.9449 50.657L110.406 38.6997C114.467 38.2065 118.251 41.8495 118.856 46.8339L124.248 91.236C124.854 96.2222 122.052 100.663 117.991 101.156L19.5297 113.114C15.4689 113.607 11.6854 109.966 11.0799 104.979L5.6876 60.5773C5.08229 55.5929 7.88405 51.1502 11.9449 50.657Z" fill="#FFDFB1"/>
</svg>
