<svg width="729" height="690" viewBox="0 0 729 690" fill="none" xmlns="http://www.w3.org/2000/svg">
<path fill-rule="evenodd" clip-rule="evenodd" d="M627.457 445.127V442.857C627.457 442.154 626.863 441.585 626.132 441.585H571.238C568.469 441.585 566.224 443.741 566.224 446.399V450.273C566.224 452.931 568.469 455.086 571.238 455.086H626.132C626.863 455.086 627.457 454.518 627.457 453.815V451.543C627.457 450.841 626.863 450.273 626.132 450.273H573.256C572.142 450.273 571.238 449.405 571.238 448.336C571.238 447.266 572.142 446.399 573.256 446.399H626.132C626.863 446.399 627.457 445.83 627.457 445.127Z" fill="#8F8F8F"/>
<path fill-rule="evenodd" clip-rule="evenodd" d="M625.085 446.399V450.271H573.256C572.142 450.271 571.238 449.404 571.238 448.336C571.238 447.265 572.142 446.399 573.256 446.399H625.085Z" fill="#CBCBCB"/>
<path fill-rule="evenodd" clip-rule="evenodd" d="M623.535 431.626V429.354C623.535 428.651 622.941 428.084 622.21 428.084H575.16C572.39 428.084 570.146 430.238 570.146 432.896V436.77C570.146 439.428 572.39 441.585 575.16 441.585H622.21C622.941 441.585 623.535 441.015 623.535 440.312V438.042C623.535 437.34 622.941 436.77 622.21 436.77H577.178C576.064 436.77 575.16 435.904 575.16 434.833C575.16 433.765 576.064 432.896 577.178 432.896H622.21C622.941 432.896 623.535 432.328 623.535 431.626Z" fill="#D2DCFF"/>
<path fill-rule="evenodd" clip-rule="evenodd" d="M621.791 432.898V436.77H577.18C576.064 436.77 575.162 435.904 575.162 434.835C575.162 433.765 576.064 432.898 577.18 432.898H621.791Z" fill="white"/>
<path fill-rule="evenodd" clip-rule="evenodd" d="M583.654 463.995L554.569 689.76H548.793L577.88 463.995H583.654Z" fill="#8F8F8F"/>
<path fill-rule="evenodd" clip-rule="evenodd" d="M660.082 689.76H654.308L629.425 496.616L625.222 463.995H630.997L635.14 496.151L660.082 689.76Z" fill="#A9A9A9"/>
<path fill-rule="evenodd" clip-rule="evenodd" d="M294.039 463.995L286.257 524.398L264.952 689.76H259.177L280.42 524.872L288.263 463.995H294.039Z" fill="#A9A9A9"/>
<path fill-rule="evenodd" clip-rule="evenodd" d="M370.465 689.76H364.69L342.796 519.821L335.604 463.995H341.379L348.512 519.358L370.465 689.76Z" fill="#8F8F8F"/>
<path fill-rule="evenodd" clip-rule="evenodd" d="M288.263 463.995H294.039L286.257 524.398L280.42 524.872L288.263 463.995Z" fill="#8F8F8F"/>
<path fill-rule="evenodd" clip-rule="evenodd" d="M341.379 463.995L348.512 519.358L342.796 519.82L335.604 463.995H341.379Z" fill="#959595"/>
<path fill-rule="evenodd" clip-rule="evenodd" d="M635.139 496.153L629.423 496.616L625.22 463.997H630.996L635.139 496.153Z" fill="#878787"/>
<path fill-rule="evenodd" clip-rule="evenodd" d="M647.08 463.995H351.775V455.086H647.08C649.212 455.086 650.94 456.745 650.94 458.792V460.287C650.94 462.334 649.212 463.995 647.08 463.995Z" fill="#FFE5BF"/>
<path fill-rule="evenodd" clip-rule="evenodd" d="M351.773 463.995H273.639C271.506 463.995 269.778 462.334 269.778 460.287V458.792C269.778 456.745 271.506 455.086 273.639 455.086H351.773V463.995Z" fill="#FFDFB1"/>
<path fill-rule="evenodd" clip-rule="evenodd" d="M351.708 433.422H377.612C378.89 433.422 379.879 434.493 379.729 435.712L377.536 453.284C377.41 454.312 376.499 455.088 375.42 455.088H353.899C352.821 455.088 351.912 454.312 351.784 453.284L349.593 435.712C349.441 434.493 350.43 433.422 351.708 433.422Z" fill="#D2DCFF"/>
<path fill-rule="evenodd" clip-rule="evenodd" d="M373.553 426.251V418.26L368.573 427.343V412.592L364.661 421.879L360.749 412.592V427.343L355.767 418.26V426.251L348.512 415.051L351.708 433.422H364.661H377.612L380.808 415.051L373.553 426.251Z" fill="#62D767"/>
<path fill-rule="evenodd" clip-rule="evenodd" d="M560.355 432.262H398.298L416.365 338.759H578.424L560.355 432.262Z" fill="#C5C5C5"/>
<path fill-rule="evenodd" clip-rule="evenodd" d="M478.532 390.962H496.735L520.698 455.086H488.901L483.716 423.024L478.532 390.962Z" fill="#DDDDDD"/>
<path fill-rule="evenodd" clip-rule="evenodd" d="M477.877 450.971H423.783C422.798 450.971 422 451.738 422 452.683V453.374C422 454.321 422.798 455.088 423.783 455.088H477.877C478.861 455.088 479.66 454.321 479.66 453.374V452.683C479.66 451.738 478.861 450.971 477.877 450.971Z" fill="#CBCBCB"/>
<path fill-rule="evenodd" clip-rule="evenodd" d="M478.532 390.962V432.262H485.209L478.532 390.962Z" fill="#9C9C9C"/>
<path fill-rule="evenodd" clip-rule="evenodd" d="M225.839 192.395C203.439 195.98 175.528 187.976 172.029 182.878C163.917 194.744 159.798 194.371 159.798 194.371V203.271L157.965 201.513C157.402 200.286 156.505 199.068 155.164 199.068C147.788 199.068 147.271 218.763 159.686 219.901C159.931 220.673 160.183 221.395 160.441 222.049V253.57H188.441V241.171C190.324 241.669 192.127 241.953 193.784 241.953C204.823 241.953 223.634 226.371 225.768 201.511C225.896 196.819 225.839 192.395 225.839 192.395Z" fill="#FCBEB7"/>
<path fill-rule="evenodd" clip-rule="evenodd" d="M191.852 158.656C172.542 158.656 168.68 168.544 168.68 168.544C160.442 168.544 147.825 183.001 155.42 199.07L155.459 199.106L159.799 203.271V194.371C159.799 194.371 163.918 194.744 172.027 182.878C175.526 187.976 203.439 195.98 225.838 192.395C225.838 192.395 225.896 196.819 225.768 201.511C225.768 201.516 225.768 201.521 225.766 201.526C234.134 178.291 217.341 158.656 191.852 158.656Z" fill="#311643"/>
<path fill-rule="evenodd" clip-rule="evenodd" d="M183.549 208.298C182.695 208.298 182.004 207.634 182.004 206.816V204.044C182.004 203.226 182.695 202.563 183.549 202.563C184.403 202.563 185.094 203.226 185.094 204.044V206.816C185.094 207.634 184.403 208.298 183.549 208.298Z" fill="#311643"/>
<path fill-rule="evenodd" clip-rule="evenodd" d="M212.194 208.298C211.34 208.298 210.648 207.634 210.648 206.816V204.044C210.648 203.226 211.34 202.563 212.194 202.563C213.048 202.563 213.737 203.226 213.737 204.044V206.816C213.737 207.634 213.048 208.298 212.194 208.298Z" fill="#311643"/>
<path fill-rule="evenodd" clip-rule="evenodd" d="M194.907 225.609C192.15 225.609 190.272 224.615 189.134 223.708C187.7 222.563 187.105 221.318 187.079 221.263C186.92 220.922 187.077 220.519 187.435 220.366C187.791 220.212 188.209 220.363 188.369 220.703C188.45 220.871 190.408 224.815 196.098 224.183C196.486 224.14 196.837 224.408 196.883 224.779C196.928 225.152 196.649 225.49 196.26 225.533C195.788 225.584 195.336 225.609 194.907 225.609Z" fill="#311643"/>
<path fill-rule="evenodd" clip-rule="evenodd" d="M180.931 213.261C180.931 217.311 177.51 220.593 173.293 220.593C169.074 220.593 165.655 217.311 165.655 213.261C165.655 209.21 169.074 205.927 173.293 205.927C177.51 205.927 180.931 209.21 180.931 213.261Z" fill="#F49795"/>
<path fill-rule="evenodd" clip-rule="evenodd" d="M224.974 207.172C224.007 212.098 222.383 216.586 220.333 220.583C216.292 220.393 213.078 217.187 213.078 213.259C213.078 209.21 216.498 205.927 220.716 205.927C222.292 205.927 223.757 206.386 224.974 207.172Z" fill="#F49795"/>
<path fill-rule="evenodd" clip-rule="evenodd" d="M212.194 210.381C207.005 210.381 202.785 206.33 202.785 201.35C202.785 196.369 207.005 192.318 212.194 192.318C217.381 192.318 221.602 196.369 221.602 201.35C221.602 206.33 217.381 210.381 212.194 210.381ZM183.551 210.381C178.362 210.381 174.142 206.33 174.142 201.35C174.142 196.369 178.362 192.318 183.551 192.318C188.737 192.318 192.957 196.369 192.957 201.35C192.957 206.33 188.737 210.381 183.551 210.381ZM212.194 190.958C206.617 190.958 202.012 195.029 201.432 200.236C198.399 198.866 195.723 199.609 194.311 200.231C193.727 195.025 189.126 190.958 183.551 190.958C177.582 190.958 172.725 195.62 172.725 201.35C172.725 207.079 177.582 211.741 183.551 211.741C189.384 211.741 194.154 207.286 194.364 201.733C195.259 201.245 198.141 199.983 201.38 201.741C201.596 207.291 206.362 211.741 212.194 211.741C218.163 211.741 223.018 207.079 223.018 201.35C223.018 195.62 218.163 190.958 212.194 190.958Z" fill="white"/>
<path fill-rule="evenodd" clip-rule="evenodd" d="M188.441 253.57V241.171C182.11 239.502 174.902 235.41 169.483 231.507L188.441 253.57Z" fill="#F9AFAB"/>
<path fill-rule="evenodd" clip-rule="evenodd" d="M228.071 665.393V685.513C228.071 687.859 230.053 689.76 232.495 689.76H291.934C292.5 689.76 292.959 689.32 292.959 688.778V684.902C292.959 683.21 291.949 681.664 290.359 680.928L256.844 665.393H228.071Z" fill="#454545"/>
<path fill-rule="evenodd" clip-rule="evenodd" d="M121.547 665.393V685.513C121.547 687.859 119.566 689.76 117.124 689.76H57.6829C57.1182 689.76 56.6596 689.32 56.6596 688.778V684.902C56.6596 683.21 57.6692 681.664 59.259 680.928L92.7724 665.393H121.547Z" fill="#454545"/>
<path fill-rule="evenodd" clip-rule="evenodd" d="M225.716 653.948L227.949 665.393H256.844L255.371 653.948H225.716Z" fill="#FCBEB7"/>
<path fill-rule="evenodd" clip-rule="evenodd" d="M255.369 653.948H225.714L175.853 443.445L124.773 653.948H95.1182L122.748 417.787L232.303 417.785L255.369 653.948Z" fill="#62A1FF"/>
<path fill-rule="evenodd" clip-rule="evenodd" d="M95.1182 653.948L92.7721 665.393H121.547L124.773 653.948H95.1182Z" fill="#FCBEB7"/>
<path fill-rule="evenodd" clip-rule="evenodd" d="M122.157 422.852L233.39 428.884L232.305 417.785L122.749 417.787" fill="#5A97F2"/>
<path fill-rule="evenodd" clip-rule="evenodd" d="M97.0066 293.337L122.287 311.995L97.0066 293.337Z" fill="#FCBEB7"/>
<path fill-rule="evenodd" clip-rule="evenodd" d="M225.047 316.005L232.305 417.785H122.75L129.463 345.26L127.974 306.555L122.288 311.997L97.0072 293.337L110.589 272.087C113.95 266.83 118.807 262.606 124.584 259.913L155.745 245.395L156.884 244.863L160.442 243.205C160.442 243.205 176.704 253.45 188.392 243.205L194.636 245.464L195.906 245.924L228.932 257.874C234.103 259.747 238.313 263.478 240.664 268.282L254.671 296.886L225.047 316.005Z" fill="#FF5D5D"/>
<path fill-rule="evenodd" clip-rule="evenodd" d="M194.636 245.466C189.278 249.12 182.892 251.088 176.187 251.088C169.125 251.088 162.412 248.903 156.885 244.865L155.745 245.395C161.553 249.79 168.68 252.175 176.187 252.175C183.386 252.175 190.235 249.982 195.906 245.924L194.636 245.466Z" fill="white"/>
<path fill-rule="evenodd" clip-rule="evenodd" d="M177.075 404.31L87.8524 428.753C86.3841 429.155 84.8542 428.339 84.435 426.931L68.4432 373.124C68.0222 371.715 68.8727 370.246 70.341 369.845L159.563 345.401C161.031 344.998 162.561 345.815 162.98 347.224L178.975 401.03C179.392 402.439 178.542 403.908 177.075 404.31Z" fill="#989898"/>
<path fill-rule="evenodd" clip-rule="evenodd" d="M209.252 313.559H185.301C184.505 313.559 183.859 312.94 183.859 312.174V269.182C183.859 268.418 184.505 267.799 185.301 267.799H209.252C210.048 267.799 210.695 268.418 210.695 269.182V312.174C210.695 312.94 210.048 313.559 209.252 313.559Z" fill="#EAEAEB"/>
<path fill-rule="evenodd" clip-rule="evenodd" d="M274.641 342.202L254.673 296.887L239.434 306.667L218.027 288.657L213.652 274.257C213.59 273.795 213.214 273.436 212.736 273.373C210.638 273.105 208.838 274.804 209.078 276.821L209.829 283.13L201.885 284.14C199.743 284.413 197.564 284.234 195.502 283.611L188.113 281.38C185.893 280.71 183.533 281.919 182.875 284.06L180.022 283.427C178.631 283.117 177.234 283.928 176.875 285.256L176.854 285.33C176.546 286.47 177.099 287.666 178.187 288.211C177.606 290.395 178.956 292.622 181.222 293.217L181.287 293.234C180.676 295.435 181.807 297.735 183.963 298.681L189.555 301.134C191.659 302.056 193.964 302.475 196.272 302.355L208.977 301.364L252.116 355.496L252.124 355.506V355.504C255.941 359.876 262.447 361.378 268.02 358.874C274.552 355.941 277.482 348.563 274.641 342.202Z" fill="#FCBEB7"/>
<path fill-rule="evenodd" clip-rule="evenodd" d="M242.158 308.959L265.274 320.944L270.5 332.803L242.158 308.959Z" fill="#F9AFAB"/>
<path fill-rule="evenodd" clip-rule="evenodd" d="M122.693 419.213L89.968 364.468L96.8918 362.57L122.693 419.213Z" fill="#7B7B7B"/>
<path fill-rule="evenodd" clip-rule="evenodd" d="M270.5 348.291C270.5 353.052 266.479 356.912 261.519 356.912C256.56 356.912 252.54 353.052 252.54 348.291C252.54 343.531 256.56 339.671 261.519 339.671C266.479 339.671 270.5 343.531 270.5 348.291Z" fill="#F9AFAB"/>
<path fill-rule="evenodd" clip-rule="evenodd" d="M90.8601 323.746C90.8601 328.199 87.5488 331.906 83.1594 332.725L81.5559 329.143C79.9439 325.547 80.1921 321.43 82.2251 318.034L84.0527 314.98C87.9903 316.104 90.8601 319.605 90.8601 323.746Z" fill="#F9AFAB"/>
<path fill-rule="evenodd" clip-rule="evenodd" d="M147.1 409.296L135.958 404.522C135.187 404.192 134.588 403.576 134.3 402.814L132.685 398.542L138.315 399.868L140.11 403.571C140.714 404.815 142.241 405.375 143.557 404.831L141.212 398.036C140.772 396.955 139.928 396.071 138.842 395.559L127.077 390.004L106.781 326.805L122.287 311.995L97.0064 293.337L82.2245 318.034C80.1915 321.43 79.9451 325.545 81.5554 329.143L122.581 419.211L130.724 419.573C131.702 419.615 132.626 419.139 133.131 418.332L134.018 416.913L138.303 417.25C139.22 417.322 140.112 416.932 140.659 416.224L141.667 414.918L142.268 415.071C143.909 415.487 145.634 414.767 146.436 413.331L149.411 414.283C150.083 412.298 149.085 410.149 147.1 409.296Z" fill="#FCBEB7"/>
</svg>
