<svg width="23" height="23" viewBox="0 0 23 23" fill="none" xmlns="http://www.w3.org/2000/svg">
<g clip-path="url(#clip0)">
<path d="M11.5 2.87488C6.35988 2.87488 1.75392 6.24758 0.0384362 11.2677C-0.0128121 11.4186 -0.0128121 11.5814 0.0384362 11.7324C1.75392 16.7525 6.35988 20.1252 11.5 20.1252C16.6402 20.1252 21.2461 16.7525 22.9616 11.7324C23.0129 11.5814 23.0129 11.4186 22.9616 11.2677C21.2461 6.24758 16.6401 2.87488 11.5 2.87488ZM11.5 18.6876C7.05411 18.6876 3.05808 15.8091 1.48086 11.5C3.05808 7.19096 7.05407 4.31242 11.5 4.31242C15.9459 4.31242 19.942 7.19096 21.5192 11.5C19.942 15.8091 15.9459 18.6876 11.5 18.6876Z" fill="white"/>
<path d="M11.5 7.18738C9.12194 7.18738 7.18744 9.12187 7.18744 11.5C7.18744 13.878 9.12194 15.8125 11.5 15.8125C13.8781 15.8125 15.8126 13.8781 15.8126 11.5C15.8126 9.12183 13.8781 7.18738 11.5 7.18738ZM11.5 14.375C9.91436 14.375 8.62498 13.0856 8.62498 11.5C8.62498 9.9143 9.91441 8.62492 11.5 8.62492C13.0857 8.62492 14.3751 9.91434 14.3751 11.5C14.3751 13.0856 13.0856 14.375 11.5 14.375Z" fill="white"/>
</g>
<defs>
<clipPath id="clip0">
<rect width="23" height="23" fill="white"/>
</clipPath>
</defs>
</svg>
