<svg width="33" height="30" viewBox="0 0 33 30" fill="none" xmlns="http://www.w3.org/2000/svg">
<g clip-path="url(#clip0)">
<path d="M32.6892 28.3679L24.2254 20.7461C26.4418 18.5424 27.8036 15.628 27.8036 12.421C27.8026 5.56065 21.6279 0 14.0104 0C6.39296 0 0.218262 5.56065 0.218262 12.421C0.218262 19.2814 6.39296 24.842 14.0104 24.842C17.3017 24.842 20.3204 23.8002 22.6915 22.0683L31.1881 29.7201C31.6021 30.0933 32.2742 30.0933 32.6882 29.7201C33.1032 29.3469 33.1032 28.7411 32.6892 28.3679ZM14.0104 22.931C7.56521 22.931 2.34038 18.2255 2.34038 12.421C2.34038 6.61651 7.56521 1.91105 14.0104 1.91105C20.4557 1.91105 25.6804 6.61651 25.6804 12.421C25.6804 18.2255 20.4557 22.931 14.0104 22.931Z" fill="#A9A9A9"/>
</g>
<defs>
<clipPath id="clip0">
<rect width="32.782" height="30" fill="white" transform="translate(0.218018)"/>
</clipPath>
</defs>
</svg>
