<svg width="120" height="130" viewBox="0 0 120 130" fill="none" xmlns="http://www.w3.org/2000/svg">
<g clip-path="url(#clip0)">
<path d="M100.047 124.792C92.323 131.63 83.8004 130.564 75.6769 127.34C67.0403 124.051 59.1448 123.843 50.0237 127.34C38.6651 131.812 32.6366 130.512 25.7957 124.792C-12.8266 88.5224 -7.12589 33.2725 36.7696 31.1925C47.4156 31.7125 54.8693 36.5615 61.1401 36.9645C70.4607 35.2355 79.3824 30.2825 89.3586 30.9325C101.344 31.8165 110.309 36.1325 116.294 43.8935C91.6389 57.4135 97.4821 87.0534 120.128 95.3734C115.596 106.228 109.781 116.953 100.033 124.883L100.047 124.792ZM60.285 30.8025C59.1306 14.6825 73.4536 1.42256 89.9287 0.122559C92.1947 18.7125 71.4014 32.6225 60.285 30.8025Z" fill="white"/>
</g>
<defs>
<clipPath id="clip0">
<rect width="120" height="130" fill="white"/>
</clipPath>
</defs>
</svg>
