<svg width="455" height="120" viewBox="0 0 455 120" fill="none" xmlns="http://www.w3.org/2000/svg">
<g clip-path="url(#clip0)">
<path d="M371.9 0H384.5V10.0457C406.1 10.5936 428.7 10.137 450.7 10.3196V20.9132C429.2 21.4612 406.6 21.0046 384.7 21.1872C384.2 32.6941 384.4 44.9315 384.4 56.9863C384.4 69.1324 383.3 81.0959 386.5 90.8676C389.6 100.365 397.3 105.753 407.3 107.945C420.2 110.776 438.2 108.402 446.7 101.735C449.5 104.292 452 107.123 454.3 110.137C443.5 117.717 427.6 121.553 409.6 119.543C393.4 117.717 382 111.142 376 99.1781C369.8 86.758 371.5 69.4064 371.5 52.1461V1.00457C371.6 0.365297 371.6 0 371.9 0Z" fill="white"/>
<path d="M104.6 117.626H91.7V73.2421C91.7 54.4294 93.4 35.16 82.5 26.2102C71.1 16.8951 47.4 17.1691 33.1 23.5618C22 28.4933 14 37.3517 12.9 51.8723C11.3 73.4248 14.1 95.7079 12.9 117.626H0V12.9682H12.9V24.9316C21.5 15.8905 34 8.94991 51.8 7.94534C81.2 6.21018 99.5 16.9864 103.6 39.6348C105.7 51.3243 104.6 64.6577 104.6 78.265V117.626Z" fill="white"/>
<path d="M239.2 68.8584H135.6C137.3 89.6804 149.5 104.749 171.3 108.219C197.4 112.42 215.7 101.279 223.6 85.2055H236.7C228.9 103.744 214.6 115.616 191.8 119.087C153.3 124.932 126.2 102.648 122.4 71.5982C121 59.8174 122.9 48.3105 127.1 38.9954C134.6 22.2831 151.9 9.40638 176 8.03652C197.4 6.75798 213.3 14.3379 223.3 24.1096C234.1 34.5205 239.9 48.5845 239.2 68.8584ZM211.6 29.3151C203.9 22.7397 192 17.8995 177.4 18.7215C151.7 20.1826 138.9 35.4338 135.6 58.0822H225.7C224.5 45.7534 219.7 36.2557 211.6 29.3151Z" fill="white"/>
<path d="M244.4 10.5932C249.3 10.0452 255.3 10.5018 260.7 10.3192C272.6 22.7393 284.6 35.7986 296.4 48.9493C297.3 49.9539 300.8 54.4288 301.4 54.4288C302.2 54.4288 305.7 49.9539 306.7 48.9493C318.1 36.1639 330.1 22.8306 341.6 10.3192H356.6C357 11.3238 355.3 12.3283 354.2 13.4242C339.3 29.4059 324.2 46.7575 309.3 62.8306C325.7 81.0955 343.5 99.4516 359.2 117.534C354.6 116.529 348.3 118.812 343.4 117.534C342 117.169 339.2 113.698 337.6 112.054C325.5 98.9037 312.4 84.4744 300.8 71.6891C286.1 86.5749 272.6 102.557 258 117.534H242.8C242.5 116.621 244.1 115.251 245.2 114.155C260.8 97.5338 277.1 79.9082 292.8 63.2872C276.9 45.479 260.6 28.0361 244.4 10.5932Z" fill="white"/>
</g>
<defs>
<clipPath id="clip0">
<rect width="454.4" height="120" fill="white"/>
</clipPath>
</defs>
</svg>
