<svg width="300" height="180" viewBox="0 0 300 180" fill="none" xmlns="http://www.w3.org/2000/svg">
<path fill-rule="evenodd" clip-rule="evenodd" d="M27.6661 121.325H36.8269C40.2322 121.325 41.8524 122.298 41.8524 124.049C41.8524 126.384 39.2579 126.919 36.1779 126.919H27.6661V121.325ZM13.2354 134.021H39.9069C48.1759 134.021 56.364 130.908 56.364 124.925C56.364 120.547 52.3906 118.408 48.1759 117.482C51.6606 116.267 54.0123 114.661 54.0123 111.646C54.0123 108.581 51.3369 104.155 39.0136 104.155H13.2354V134.021ZM27.6661 111.257H35.367C38.2852 111.257 40.3131 111.792 40.3131 113.3C40.3131 115.246 38.3677 115.78 35.367 115.78H27.6661V111.257ZM62.2829 134.021H77.1992V123.612H85.1429C91.0618 123.612 91.4664 126.579 91.8711 129.4C92.1154 130.957 92.3582 132.513 93.0881 134.021H108.085C106.708 132.61 106.625 129.06 106.464 127.6C105.896 123.903 103.384 121.13 99.3292 120.158C104.274 119.039 106.545 115.78 106.545 112.715C106.545 107.073 99.2483 104.154 90.7365 104.154H62.2829V134.021ZM77.1992 111.257H84.2526C89.9272 111.257 91.6298 112.375 91.6298 114.224C91.6298 116.899 87.8183 117.191 85.0635 117.191H77.1992V111.257ZM109.871 119.087C109.871 128.183 120.166 134.701 135.488 134.701C150.811 134.701 161.105 128.184 161.105 119.087C161.105 109.991 150.809 103.472 135.488 103.472C120.167 103.472 109.871 109.991 109.871 119.087ZM125.436 119.087C125.436 112.423 131.515 110.915 135.488 110.915C139.46 110.915 145.541 112.423 145.541 119.087C145.541 125.751 139.46 127.259 135.488 127.259C131.515 127.259 125.436 125.751 125.436 119.087ZM219.397 134.021H240.961C257.905 134.021 265.768 128.184 265.768 119.039C265.768 111.5 260.093 104.155 243.879 104.155H219.397V134.021ZM234.313 111.792H239.095C249.877 111.792 250.85 117.044 250.85 118.941C250.85 121.714 249.472 126.384 240.15 126.384H234.313V111.792ZM271.848 134.021H286.765V104.154H271.848V134.021ZM166.295 134.021H181.132V117.725H181.292L196.939 134.021H212.18V104.154H197.346V120.109H197.181L182.348 104.154H166.295V134.021ZM157.181 65.7999L158.394 67.3688C158.4 67.38 161.573 71.415 161.716 73.6721C161.713 74.2566 161.665 74.7628 161.455 75.1251C161.291 75.4071 160.969 75.6732 160.373 75.9347L160.376 75.9357L124.865 90.6901L124.9 90.7218L122.192 91.848C130.455 95.4627 140.422 97.4049 150.647 97.393C177.319 97.393 198.884 84.4549 198.884 68.5006C198.884 62.3233 195.723 56.6317 190.212 51.9131L157.181 65.7999ZM188.081 57.9269C190.665 61.2358 192.001 64.8457 191.994 68.4996C191.994 82.168 173.512 93.2581 150.649 93.2581C145.129 93.2581 139.862 92.6296 135.065 91.4586L164.353 79.2899L164.435 79.2573C166.272 78.4495 167.329 77.5232 167.934 76.4801C168.487 75.5304 168.603 74.6003 168.603 73.6076V73.5348C168.485 71.5644 166.91 68.9096 165.78 67.2371L188.081 57.9269ZM143.862 59.0736L139.977 60.7078L139.971 60.7031C139.424 60.9515 139.121 61.2083 138.964 61.4838C138.741 61.8685 138.69 62.3868 138.687 62.9873C138.83 65.2443 142.002 69.2794 142.011 69.2906L143.22 70.8594L140.869 71.8464L116.2 82.1979L116.273 82.2651L110.599 84.5997C105.491 79.9791 102.411 74.4331 102.411 68.4996C102.411 52.4967 124.057 39.5576 150.647 39.5576C160.434 39.5495 169.993 41.3313 178.049 44.6657L175.243 45.8722L175.23 45.8759L143.862 59.0736ZM112.87 78.5522L134.626 69.4222C133.496 67.7498 131.924 65.0949 131.804 63.1245V63.0526C131.804 62.0273 131.92 61.0841 132.458 60.1456C133.064 59.0942 134.123 58.1669 135.971 57.3544L136.024 57.3218L164.885 45.1802C160.319 44.1906 155.5 43.6872 150.646 43.6926C127.865 43.6926 109.301 54.7827 109.301 68.4996C109.302 72.0575 110.586 75.4697 112.87 78.5522Z" fill="white"/>
</svg>
