<svg width="300" height="130" viewBox="0 0 300 130" fill="none" xmlns="http://www.w3.org/2000/svg">
<path d="M33.0923 129.947C24.1535 129.515 16.8402 126.541 11.1219 121.018C10.0306 119.963 7.43004 116.799 6.55762 115.465C4.23874 111.919 2.6622 108.469 1.61065 104.641C-1.62504 92.8566 0.0402416 77.3932 6.37393 60.4224C11.7969 45.8933 20.1647 31.4832 34.7637 11.5254C36.9142 8.58868 43.3182 0 43.3596 0C43.375 0 43.0259 0.735091 42.5866 1.63029C38.7907 9.36102 35.5428 18.4671 33.7734 26.3505C30.931 38.9999 31.2739 49.8554 34.7774 58.2729C37.1943 64.0719 41.3377 69.0948 45.9968 71.8715C54.1534 76.7307 66.0953 77.1327 80.6789 73.0477C81.683 72.7648 131.437 56.7059 191.244 37.3604C251.051 18.013 299.992 2.19602 300 2.20905C300.017 2.2258 161.051 74.5272 88.9121 112.036C77.4876 117.975 74.4325 119.475 69.0616 121.768C55.332 127.63 43.0336 130.427 33.0923 129.947Z" fill="white"/>
</svg>
