<svg width="473" height="317" viewBox="0 0 473 317" fill="none" xmlns="http://www.w3.org/2000/svg">
<path fill-rule="evenodd" clip-rule="evenodd" d="M281.098 270.639H13.6268C6.10066 270.639 0 264.783 0 257.557V13.0821C0 5.85679 6.10066 0 13.6268 0H281.098C288.622 0 294.725 5.85679 294.725 13.0821V257.557C294.725 264.783 288.622 270.639 281.098 270.639Z" fill="#707070"/>
<path fill-rule="evenodd" clip-rule="evenodd" d="M459.352 316.639H191.881C184.355 316.639 178.254 310.783 178.254 303.557V59.0821C178.254 51.8568 184.355 46 191.881 46H459.352C466.876 46 472.979 51.8568 472.979 59.0821V303.557C472.979 310.783 466.876 316.639 459.352 316.639Z" fill="#E2F8FF"/>
<path fill-rule="evenodd" clip-rule="evenodd" d="M166.869 39.1746H39.9597C37.7026 39.1746 35.8698 37.4167 35.8698 35.2482C35.8698 33.0796 37.7026 31.3234 39.9597 31.3234H166.869C169.128 31.3234 170.959 33.0796 170.959 35.2482C170.959 37.4167 169.128 39.1746 166.869 39.1746Z" fill="#EAEAEA"/>
<path fill-rule="evenodd" clip-rule="evenodd" d="M338.253 109.851H211.344C209.087 109.851 207.254 108.093 207.254 105.925C207.254 103.756 209.087 102 211.344 102H338.253C340.512 102 342.343 103.756 342.343 105.925C342.343 108.093 340.512 109.851 338.253 109.851Z" fill="#979797"/>
<path fill-rule="evenodd" clip-rule="evenodd" d="M126.071 58.7639H39.9597C37.7009 58.7639 35.8698 57.006 35.8698 54.8374C35.8698 52.6689 37.7009 50.911 39.9597 50.911H126.071C128.33 50.911 130.161 52.6689 130.161 54.8374C130.161 57.006 128.33 58.7639 126.071 58.7639Z" fill="#EAEAEA"/>
<path fill-rule="evenodd" clip-rule="evenodd" d="M297.455 92.8529H211.344C209.085 92.8529 207.254 91.095 207.254 88.9264C207.254 86.7579 209.085 85 211.344 85H297.455C299.714 85 301.545 86.7579 301.545 88.9264C301.545 91.095 299.714 92.8529 297.455 92.8529Z" fill="#979797"/>
<path fill-rule="evenodd" clip-rule="evenodd" d="M61.4704 90.8587H38.791C37.1772 90.8587 35.8698 89.6036 35.8698 88.056C35.8698 86.5068 37.1772 85.2516 38.791 85.2516H61.4704C63.0842 85.2516 64.3916 86.5068 64.3916 88.056C64.3916 89.6036 63.0842 90.8587 61.4704 90.8587Z" fill="#EAEAEA"/>
<g filter="url(#filter0_d)">
<path fill-rule="evenodd" clip-rule="evenodd" d="M246.599 187H158.909C156.89 187 155.254 185.74 155.254 184.186V172.814C155.254 171.261 156.89 170 158.909 170H246.599C248.616 170 250.254 171.261 250.254 172.814V184.186C250.254 185.74 248.616 187 246.599 187Z" fill="#FF5E5E"/>
</g>
<g filter="url(#filter1_d)">
<path fill-rule="evenodd" clip-rule="evenodd" d="M290.356 218H159.152C156.998 218 155.254 216.74 155.254 215.187V203.814C155.254 202.261 156.998 201 159.152 201H290.356C292.507 201 294.254 202.261 294.254 203.814V215.187C294.254 216.74 292.507 218 290.356 218Z" fill="#FF5D5D"/>
</g>
<path fill-rule="evenodd" clip-rule="evenodd" d="M79.5192 236.24C79.5192 233.35 81.9578 231.009 84.9679 231.009C63.7636 231.009 46.5157 214.449 46.5157 194.094C46.5157 173.739 63.7636 157.178 84.9679 157.178C106.171 157.178 123.42 173.739 123.42 194.094C123.42 191.206 125.86 188.863 128.867 188.863C131.877 188.863 134.316 191.206 134.316 194.094C134.316 167.971 112.177 146.718 84.9679 146.718C57.757 146.718 35.6183 167.971 35.6183 194.094C35.6183 220.217 57.757 241.47 84.9679 241.47C81.9578 241.47 79.5192 239.128 79.5192 236.24Z" fill="#EAEAEA"/>
<path fill-rule="evenodd" clip-rule="evenodd" d="M393.052 132.743C393.052 130.943 394.486 129.486 396.254 129.486C383.794 129.486 373.658 119.174 373.658 106.5C373.658 93.8251 383.794 83.5132 396.254 83.5132C408.714 83.5132 418.851 93.8251 418.851 106.5C418.851 104.701 420.285 103.243 422.052 103.243C423.821 103.243 425.254 104.701 425.254 106.5C425.254 90.2335 412.244 77 396.254 77C380.264 77 367.254 90.2335 367.254 106.5C367.254 122.766 380.264 136 396.254 136C394.486 136 393.052 134.541 393.052 132.743Z" fill="#979797"/>
<path fill-rule="evenodd" clip-rule="evenodd" d="M128.869 188.863C125.86 188.863 123.42 191.206 123.42 194.094C123.42 214.449 106.17 231.009 84.9679 231.009C81.9595 231.009 79.5209 233.35 79.5209 236.24C79.5209 239.128 81.9595 241.469 84.9679 241.469C112.179 241.469 134.317 220.217 134.317 194.094C134.317 191.206 131.879 188.863 128.869 188.863Z" fill="#FF5E5E"/>
<path fill-rule="evenodd" clip-rule="evenodd" d="M422.873 100C421.006 100 419.492 101.603 419.492 103.58C419.492 117.509 408.789 128.842 395.634 128.842C393.767 128.842 392.254 130.444 392.254 132.421C392.254 134.398 393.767 136 395.634 136C412.517 136 426.254 121.457 426.254 103.58C426.254 101.603 424.741 100 422.873 100Z" fill="#FF5D5D"/>
<defs>
<filter id="filter0_d" x="151.254" y="170" width="103" height="25" filterUnits="userSpaceOnUse" color-interpolation-filters="sRGB">
<feFlood flood-opacity="0" result="BackgroundImageFix"/>
<feColorMatrix in="SourceAlpha" type="matrix" values="0 0 0 0 0 0 0 0 0 0 0 0 0 0 0 0 0 0 127 0"/>
<feOffset dy="4"/>
<feGaussianBlur stdDeviation="2"/>
<feColorMatrix type="matrix" values="0 0 0 0 0 0 0 0 0 0 0 0 0 0 0 0 0 0 0.25 0"/>
<feBlend mode="normal" in2="BackgroundImageFix" result="effect1_dropShadow"/>
<feBlend mode="normal" in="SourceGraphic" in2="effect1_dropShadow" result="shape"/>
</filter>
<filter id="filter1_d" x="151.254" y="201" width="147" height="25" filterUnits="userSpaceOnUse" color-interpolation-filters="sRGB">
<feFlood flood-opacity="0" result="BackgroundImageFix"/>
<feColorMatrix in="SourceAlpha" type="matrix" values="0 0 0 0 0 0 0 0 0 0 0 0 0 0 0 0 0 0 127 0"/>
<feOffset dy="4"/>
<feGaussianBlur stdDeviation="2"/>
<feColorMatrix type="matrix" values="0 0 0 0 0 0 0 0 0 0 0 0 0 0 0 0 0 0 0.25 0"/>
<feBlend mode="normal" in2="BackgroundImageFix" result="effect1_dropShadow"/>
<feBlend mode="normal" in="SourceGraphic" in2="effect1_dropShadow" result="shape"/>
</filter>
</defs>
</svg>
