<svg width="183" height="202" viewBox="0 0 183 202" fill="none" xmlns="http://www.w3.org/2000/svg">
<path fill-rule="evenodd" clip-rule="evenodd" d="M126.549 165.568L20.5026 121.645C16.8828 120.146 15.4763 115.239 17.3623 110.685L59.7928 8.24329C61.6787 3.68995 66.1423 1.21578 69.7622 2.71506L175.809 46.6383C179.428 48.1376 180.836 53.0438 178.95 57.5971L136.52 160.039C134.634 164.593 130.169 167.068 126.549 165.568Z" fill="#E2F8FF"/>
<path fill-rule="evenodd" clip-rule="evenodd" d="M112.601 199.243L6.55512 155.319C2.93531 153.82 1.52888 148.913 3.41482 144.36L22.5577 98.1418L141.715 147.496L122.572 193.713C120.687 198.267 116.221 200.742 112.601 199.243Z" fill="#FF5D5D"/>
<path fill-rule="evenodd" clip-rule="evenodd" d="M93.4511 151.86L33.9035 127.196C32.925 126.79 32.5438 125.463 33.0539 124.232C33.5636 123.001 34.772 122.331 35.7505 122.736L95.2981 147.4C96.2766 147.806 96.6573 149.134 96.1476 150.364C95.6375 151.596 94.4296 152.265 93.4511 151.86Z" fill="white"/>
<path fill-rule="evenodd" clip-rule="evenodd" d="M60.3266 152.386L28.867 139.356C27.8886 138.95 27.5073 137.623 28.0175 136.392C28.5271 135.161 29.7355 134.491 30.714 134.896L62.1736 147.926C63.152 148.332 63.5328 149.66 63.0231 150.89C62.513 152.122 61.305 152.791 60.3266 152.386Z" fill="white"/>
<path fill-rule="evenodd" clip-rule="evenodd" d="M139.196 90.9209L107.737 77.8907C106.758 77.4854 106.377 76.1584 106.887 74.9267C107.397 73.6962 108.605 73.0261 109.584 73.4314L141.043 86.4616C142.023 86.8673 142.402 88.1952 141.893 89.4256C141.382 90.6574 140.176 91.3266 139.196 90.9209Z" fill="#898989"/>
<path fill-rule="evenodd" clip-rule="evenodd" d="M118.576 96.6264L102.7 90.0506C101.721 89.6449 101.34 88.3183 101.851 87.0866C102.361 85.8549 103.568 85.1856 104.547 85.5913L120.423 92.1671C121.402 92.5723 121.783 93.8994 121.273 95.1311C120.763 96.3628 119.555 97.0316 118.576 96.6264Z" fill="#898989"/>
<path fill-rule="evenodd" clip-rule="evenodd" d="M67.7973 89.1372C68.4303 87.609 69.9284 86.7773 71.1447 87.281C62.5797 83.7335 59.2418 72.0876 63.7024 61.3181C68.163 50.5487 78.7585 44.6723 87.3234 48.2198C95.8874 51.7669 99.2248 63.4142 94.7642 74.1836C95.3977 72.6541 96.8973 71.8245 98.1115 72.3274C99.3268 72.8308 99.7996 74.4773 99.1661 76.0068C104.891 62.1849 100.607 47.2363 89.6162 42.6842C78.6249 38.1317 65.0264 45.6733 59.3015 59.4953C53.5771 73.316 57.8606 88.2641 68.8519 92.8166C67.6356 92.3128 67.1644 90.6654 67.7973 89.1372Z" fill="#FF5D5D"/>
<path fill-rule="evenodd" clip-rule="evenodd" d="M98.1119 72.3278C96.8967 71.8244 95.3981 72.6544 94.7646 74.1839C90.304 84.9534 79.709 90.8285 71.1451 87.2814C69.9288 86.7776 68.4307 87.6093 67.7977 89.1376C67.1647 90.6658 67.636 92.3132 68.8523 92.817C79.8426 97.369 93.4411 89.8274 99.1654 76.0068C99.799 74.4772 99.3272 72.8311 98.1119 72.3278Z" fill="#898989"/>
</svg>
