<svg width="191" height="433" viewBox="0 0 191 433" fill="none" xmlns="http://www.w3.org/2000/svg">
<path fill-rule="evenodd" clip-rule="evenodd" d="M86.5854 68.1161C84.9556 68.1161 83.1749 67.871 81.3186 67.4437V77.5093H54.6859V51.6135C54.5053 51.1982 54.3265 50.7536 54.1508 50.2861C42.3436 49.366 42.8344 33.4419 49.8491 33.4419C49.9459 33.4419 50.0378 33.4486 50.1298 33.4593V33.458C79.6232 41.1528 99.4578 28.5451 105.947 19.7855C105.947 25.8971 114.237 31.8588 117.187 32.4012C116.75 54.248 97.5999 68.1161 86.5854 68.1161ZM122.782 26.0471C122.782 11.6581 107.229 0 83.9101 0C64.5302 0 57.8699 8.72614 57.8699 8.72614C57.8699 8.72614 39.5535 11.9567 39.5535 30.5328V77.5093H69.6525H71.1871H93.4147H117.581V38.8223C119.489 36.911 122.782 32.6544 122.782 26.0471Z" fill="#311643"/>
<path fill-rule="evenodd" clip-rule="evenodd" d="M81.3188 68.8303V67.444C83.175 67.8713 84.9558 68.1164 86.5856 68.1164C97.6001 68.1164 116.75 54.247 117.187 32.4015C114.238 31.8577 105.948 25.8974 105.948 19.7844C99.458 28.5454 79.6234 41.1517 50.1299 33.4569V33.4596C50.038 33.4489 49.9461 33.4422 49.8493 33.4422C42.8345 33.4422 42.3438 49.3662 54.151 50.2864C54.3266 50.7538 54.5055 51.1972 54.6861 51.6137V69.0339L33.8273 77.0582V98.0678H103.143V76.8586L81.3204 68.8303H81.3188Z" fill="#FCBEB7"/>
<path fill-rule="evenodd" clip-rule="evenodd" d="M103.142 98.0675V76.8582L81.3184 68.8299V67.4436C75.1473 66.0225 68.1342 62.5803 62.9823 59.3684L103.142 98.0675Z" fill="#F9AFAB"/>
<path fill-rule="evenodd" clip-rule="evenodd" d="M74.361 44.9168C74.361 48.1903 71.108 50.8449 67.0951 50.8449C63.0822 50.8449 59.8293 48.1903 59.8293 44.9168C59.8293 41.642 63.0822 38.9873 67.0951 38.9873C71.108 38.9873 74.361 41.642 74.361 44.9168Z" fill="#F49795"/>
<path fill-rule="evenodd" clip-rule="evenodd" d="M116.251 39.9934C115.331 43.9754 113.786 47.6065 111.837 50.8385C107.994 50.6831 104.937 48.0901 104.937 44.9157C104.937 41.6409 108.19 38.9875 112.203 38.9875C113.701 38.9875 115.094 39.3586 116.251 39.9934Z" fill="#F49795"/>
<path fill-rule="evenodd" clip-rule="evenodd" d="M103.963 42.5892C99.0276 42.5892 95.0131 39.3131 95.0131 35.2855C95.0131 31.2593 99.0276 27.9831 103.963 27.9831C108.897 27.9831 112.911 31.2593 112.911 35.2855C112.911 39.3131 108.897 42.5892 103.963 42.5892ZM76.7164 42.5892C71.7844 42.5892 67.7682 39.3131 67.7682 35.2855C67.7682 31.2593 71.7844 27.9831 76.7164 27.9831C81.6516 27.9831 85.6678 31.2593 85.6678 35.2855C85.6678 39.3131 81.6516 42.5892 76.7164 42.5892ZM103.963 26.8835C98.6583 26.8835 94.2778 30.1744 93.7264 34.3868C90.8427 33.2791 88.2971 33.8792 86.9529 34.3828C86.3998 30.1731 82.0209 26.8835 76.7163 26.8835C71.0392 26.8835 66.4207 30.6526 66.4207 35.2855C66.4207 39.9185 71.0392 43.6889 76.7163 43.6889C82.2671 43.6889 86.8035 40.0846 87.0038 35.5949C87.8572 35.1931 90.5751 34.1698 93.6755 35.6043C93.8806 40.0899 98.4154 43.6889 103.963 43.6889C109.64 43.6889 114.257 39.9185 114.257 35.2855C114.257 30.6526 109.64 26.8835 103.963 26.8835Z" fill="white"/>
<path fill-rule="evenodd" clip-rule="evenodd" d="M103.969 41.3065C103.157 41.3065 102.499 40.7694 102.499 40.1064V37.867C102.499 37.2053 103.157 36.6682 103.969 36.6682C104.78 36.6682 105.44 37.2053 105.44 37.867V40.1064C105.44 40.7694 104.78 41.3065 103.969 41.3065Z" fill="#311643"/>
<path fill-rule="evenodd" clip-rule="evenodd" d="M77.1643 41.3065C76.3535 41.3065 75.6937 40.7694 75.6937 40.1064V37.867C75.6937 37.2053 76.3535 36.6682 77.1643 36.6682C77.975 36.6682 78.6348 37.2053 78.6348 37.867V40.1064C78.6348 40.7694 77.975 41.3065 77.1643 41.3065Z" fill="#311643"/>
<path fill-rule="evenodd" clip-rule="evenodd" d="M87.6545 54.9007C85.0302 54.9007 83.2445 54.0957 82.1629 53.3631C80.799 52.4389 80.2328 51.4303 80.2098 51.3875C80.0555 51.1102 80.2081 50.7847 80.5462 50.6602C80.886 50.5356 81.2832 50.6588 81.4358 50.9347C81.5129 51.07 83.3758 54.2578 88.7854 53.7475C89.1563 53.7113 89.4895 53.9283 89.5338 54.2296C89.5764 54.531 89.3106 54.8042 88.9413 54.8391C88.4916 54.8806 88.0616 54.9007 87.6545 54.9007Z" fill="#311643"/>
<path fill-rule="evenodd" clip-rule="evenodd" d="M131.701 403.7L134.458 413.047L164.511 420.749L160.188 403.7H131.701Z" fill="#FCBEB7"/>
<path fill-rule="evenodd" clip-rule="evenodd" d="M30.4445 403.7L31.2651 415.247L29.3924 415.809L28.1566 420.753L58.1818 413.047L58.9318 403.7H30.4445Z" fill="#FCBEB7"/>
<path fill-rule="evenodd" clip-rule="evenodd" d="M187.69 424.379L163.258 415.808L164.512 420.749L134.457 413.047V420.074C134.457 422.546 136.041 424.785 138.531 426.045L141.116 432.075C141.339 432.596 141.941 432.945 142.617 432.945C143.497 432.945 144.209 432.363 144.209 431.645V427.724L164.75 432.945H185.53C188.55 432.945 191 430.946 191 428.48C191 426.696 189.698 425.084 187.69 424.379Z" fill="#2F3D6C"/>
<path fill-rule="evenodd" clip-rule="evenodd" d="M58.2097 420.007L58.1834 412.979L28.1566 420.754L29.3925 415.809L4.99186 424.44C2.98788 425.148 1.68964 426.764 1.69621 428.548C1.70605 431.014 4.16138 433.007 7.18294 433L27.9613 432.95L49.2024 427.494L49.2172 431.602C49.2189 432.318 49.9345 432.898 50.8142 432.897C51.4904 432.896 52.0911 432.545 52.3126 432.022L55.1175 425.42C57.0411 424.109 58.2179 422.143 58.2097 420.007Z" fill="#2F3D6C"/>
<path fill-rule="evenodd" clip-rule="evenodd" d="M34.99 168.61L23.9049 206.918C20.7028 217.98 19.4407 229.357 20.1579 240.71L30.4437 403.7H58.9327L71.096 234.547L131.701 403.7H160.188L110.03 168.61H34.99Z" fill="#62A1FF"/>
<path fill-rule="evenodd" clip-rule="evenodd" d="M72.6828 87.7046C77.7411 87.7046 81.7869 83.7293 84.5146 79.7031H55.6695C60.0664 83.7186 66.0931 87.7046 72.6828 87.7046Z" fill="white"/>
<path fill-rule="evenodd" clip-rule="evenodd" d="M122.398 90.9099C118.819 85.0715 112.877 80.4212 105.579 77.7491L88.4604 71.4834C88.4604 72.1384 87.062 75.9436 84.5148 79.7032C81.787 83.7295 77.7413 87.7048 72.6829 87.7048C66.0933 87.7048 60.0666 83.7187 55.6697 79.7032C51.2054 75.6288 48.4153 71.5249 48.4153 71.5249L28.5544 79.0335C20.4253 82.1075 14.4412 88.0222 12.2781 95.117L0.669429 133.212C-1.22294 139.424 0.95829 145.992 6.43353 150.576C15.5721 147.957 32.7347 142.507 32.7347 142.507L34.9898 168.611H110.03L128.673 101.148L122.398 90.9099Z" fill="#FF5D5D"/>
<path fill-rule="evenodd" clip-rule="evenodd" d="M73.4233 93.4317C69.2529 93.4317 65.007 92.3963 60.8053 90.3524C57.4703 88.7304 54.155 86.4735 50.9512 83.642C45.5137 78.839 42.2017 73.9355 42.1688 73.8859L43.2849 73.464C43.3161 73.5122 46.5264 78.2657 51.8687 82.9804C54.992 85.7355 58.2121 87.9294 61.4438 89.4992C65.4501 91.4453 69.481 92.4325 73.4233 92.4325C77.1474 92.4325 80.5004 91.4185 83.3891 89.4188C85.7295 87.8009 87.7794 85.5359 89.4847 82.6884C92.416 77.7929 93.2186 73.2778 93.2251 73.2283L94.3806 73.6502C94.3428 73.8578 93.6075 78.0702 90.5991 83.1063C88.8183 86.0851 86.6634 88.4625 84.1933 90.1743C81.0732 92.336 77.4493 93.4317 73.4233 93.4317Z" fill="white"/>
<path fill-rule="evenodd" clip-rule="evenodd" d="M131.778 287.551C131.778 293.697 125.671 298.68 118.141 298.68C110.61 298.68 104.505 293.697 104.505 287.551C104.505 281.406 110.61 276.423 118.141 276.423C125.671 276.423 131.778 281.406 131.778 287.551Z" fill="#89AEFF"/>
<path fill-rule="evenodd" clip-rule="evenodd" d="M60.3366 287.551C60.3366 293.697 54.2311 298.68 46.6994 298.68C39.1709 298.68 33.0654 293.697 33.0654 287.551C33.0654 281.406 39.1709 276.423 46.6994 276.423C54.2311 276.423 60.3366 281.406 60.3366 287.551Z" fill="#89AEFF"/>
<path fill-rule="evenodd" clip-rule="evenodd" d="M28.6734 83.9809C28.6734 87.9053 24.7738 91.089 19.9633 91.089C18.0331 91.089 16.2475 90.5761 14.8031 89.7055C17.5178 85.4931 21.7211 81.9973 26.9206 79.7029C28.0218 80.8936 28.6734 82.375 28.6734 83.9809Z" fill="#FCBEB7"/>
<path fill-rule="evenodd" clip-rule="evenodd" d="M79.6325 177.428L137.379 175.648C140.412 175.554 143.038 173.896 143.909 171.523L169.157 102.84C169.693 101.381 168.311 99.9255 166.447 99.9831L108.048 101.783C105.405 101.864 103.119 103.309 102.357 105.377L76.9245 174.57C76.3861 176.03 77.7681 177.484 79.6325 177.428Z" fill="#8F8F8F"/>
<path fill-rule="evenodd" clip-rule="evenodd" d="M141.864 141.353L151.968 149.602L153.691 144.914L141.864 141.353Z" fill="#2F3D6C"/>
<path fill-rule="evenodd" clip-rule="evenodd" d="M155.892 128.582L141.336 129.366C140.26 129.425 139.427 130.157 139.438 131.037L137.991 131.11C137.05 131.158 136.285 131.749 136.174 132.512L135.996 133.747H135.988C134.912 133.759 134.05 134.48 134.063 135.36C134.073 136.005 134.559 136.581 135.292 136.82L138.554 137.875C138.547 139.23 139.51 140.465 141.017 141.033L151.147 144.855C152.619 145.41 154.254 145.614 155.861 145.444C159.476 145.061 162.401 142.86 163.163 139.952L163.791 137.547C164.471 134.956 163.486 132.262 161.18 130.396C159.77 129.256 157.876 128.606 155.892 128.582Z" fill="#FCBEB7"/>
<path fill-rule="evenodd" clip-rule="evenodd" d="M83.5305 82.7596L93.4667 102.577C94.0264 103.696 94.847 104.708 95.8564 105.529L97.624 106.968C98.0343 107.301 98.6071 107.11 98.6121 106.637L98.6383 104.601C98.6531 103.437 98.3691 102.246 97.8078 101.128L87.8733 81.3104C87.2677 80.1036 85.8069 79.4514 84.6055 79.8518C83.4074 80.251 82.9265 81.5542 83.5305 82.7596Z" fill="#6277D7"/>
<path fill-rule="evenodd" clip-rule="evenodd" d="M96.5917 94.5658L91.1378 88.434C90.4337 87.6451 89.3471 87.1402 88.1539 87.0518L79.0089 86.3767C77.7631 86.2843 76.524 86.6111 75.5819 87.2808L70.8173 90.6601C70.1296 91.1476 69.5453 91.7249 69.0874 92.3678L63.2413 99.9381L7.81432 136.483C2.34564 140.089 1.86147 146.751 6.76883 150.859C11.6499 154.943 19.7692 154.745 24.3418 150.429L71.1489 106.248L80.9915 101.308L88.259 101.513C89.9462 101.56 91.4348 100.614 91.7926 99.267L92.1914 98.8813C92.8791 98.2156 93.1581 97.3303 92.9464 96.4771L92.5312 94.8028L94.8798 96.0418C95.2229 96.2212 95.6512 96.2561 96.0303 96.1342C96.8017 95.8877 97.0791 95.1122 96.5917 94.5658Z" fill="#FCBEB7"/>
<path fill-rule="evenodd" clip-rule="evenodd" d="M32.7349 142.507L53.2441 123.148L33.5145 151.532L32.7349 142.507Z" fill="#D25151"/>
<path fill-rule="evenodd" clip-rule="evenodd" d="M79.6325 177.428L113.538 185.048L111.701 176.44L79.6325 177.428Z" fill="#2F3D6C"/>
<path fill-rule="evenodd" clip-rule="evenodd" d="M119.369 86.8597C118.297 87.224 117.122 87.4249 115.888 87.4249C110.885 87.4249 106.83 84.1153 106.83 80.0328C106.83 79.4475 106.913 78.8783 107.071 78.3318C111.952 80.3516 116.162 83.2795 119.369 86.8597Z" fill="#FCBEB7"/>
<path fill-rule="evenodd" clip-rule="evenodd" d="M23.998 145.434C23.998 149.231 20.2247 152.309 15.5717 152.309C10.9188 152.309 7.14716 149.231 7.14716 145.434C7.14716 141.637 10.9188 138.559 15.5717 138.559C20.2247 138.559 23.998 141.637 23.998 145.434Z" fill="#F9AFAB"/>
</svg>
