<svg width="1297" height="377" viewBox="0 0 1297 377" fill="none" xmlns="http://www.w3.org/2000/svg">
<path d="M352.2 285C335.2 285 320.5 281.3 308.1 273.9C295.9 266.5 286.4 256.7 279.6 244.5C272.8 232.1 269.4 218.7 269.4 204.3C269.4 189.5 272.7 175.9 279.3 163.5C286.1 150.9 295.7 140.9 308.1 133.5C320.5 125.9 335.3 122.1 352.5 122.1C369.7 122.1 384.4 125.9 396.6 133.5C408.8 140.9 418.1 150.8 424.5 163.2C431.1 175.4 434.4 188.6 434.4 202.8C434.4 208 434.1 212.5 433.5 216.3H312C313 228.5 317.5 238.1 325.5 245.1C333.7 252.1 343.1 255.6 353.7 255.6C361.7 255.6 369.2 253.7 376.2 249.9C383.4 245.9 388.3 240.7 390.9 234.3L425.4 243.9C419.6 255.9 410.3 265.8 397.5 273.6C384.7 281.2 369.6 285 352.2 285ZM311.1 190.8H393.3C392.1 179 387.6 169.5 379.8 162.3C372.2 154.9 362.9 151.2 351.9 151.2C341.1 151.2 331.8 154.9 324 162.3C316.4 169.5 312.1 179 311.1 190.8ZM548.29 285C536.29 285 525.59 282.3 516.19 276.9C506.79 271.5 499.39 264.1 493.99 254.7V282H458.89V63H499.09V152.4C504.69 143 511.99 135.6 520.99 130.2C530.19 124.8 540.89 122.1 553.09 122.1C566.69 122.1 578.59 125.9 588.79 133.5C599.19 140.9 607.29 150.8 613.09 163.2C618.89 175.6 621.79 189.2 621.79 204C621.79 219.2 618.59 232.9 612.19 245.1C605.79 257.3 596.99 267 585.79 274.2C574.79 281.4 562.29 285 548.29 285ZM537.19 250.8C545.79 250.8 553.29 248.7 559.69 244.5C566.29 240.3 571.39 234.7 574.99 227.7C578.79 220.5 580.69 212.7 580.69 204.3C580.69 195.7 578.89 187.8 575.29 180.6C571.89 173.2 567.09 167.3 560.89 162.9C554.69 158.5 547.59 156.3 539.59 156.3C530.79 156.3 522.69 159.3 515.29 165.3C508.09 171.1 502.69 178.3 499.09 186.9V224.4C501.69 232.2 506.79 238.6 514.39 243.6C521.99 248.4 529.59 250.8 537.19 250.8ZM777.483 124.8C775.683 122.8 771.883 120.2 766.083 117C760.283 113.6 753.283 110.6 745.083 108C737.083 105.2 728.783 103.8 720.183 103.8C697.583 103.8 686.283 111.8 686.283 127.8C686.283 133.6 688.083 138.2 691.683 141.6C695.283 145 700.683 147.9 707.883 150.3C715.083 152.7 724.083 155.3 734.883 158.1C748.883 161.7 760.983 165.9 771.183 170.7C781.583 175.5 789.483 181.9 794.883 189.9C800.483 197.7 803.283 208.1 803.283 221.1C803.283 236.3 799.583 248.6 792.183 258C784.983 267.2 775.383 273.9 763.383 278.1C751.383 282.3 738.383 284.4 724.383 284.4C708.383 284.4 692.483 282 676.683 277.2C661.083 272.2 647.183 265.4 634.983 256.8L653.283 221.1C655.083 222.9 658.283 225.3 662.883 228.3C667.483 231.1 673.083 234 679.683 237C686.283 239.8 693.483 242.2 701.283 244.2C709.083 246.2 716.983 247.2 724.983 247.2C747.783 247.2 759.183 239.9 759.183 225.3C759.183 219.1 756.883 214.1 752.283 210.3C747.683 206.5 741.183 203.3 732.783 200.7C724.583 198.1 714.983 195.2 703.983 192C690.383 188.2 679.083 184 670.083 179.4C661.283 174.6 654.683 168.7 650.283 161.7C645.883 154.5 643.683 145.4 643.683 134.4C643.683 119.8 647.083 107.6 653.883 97.8C660.883 87.8 670.283 80.3 682.083 75.3C693.883 70.1 706.983 67.5 721.383 67.5C736.183 67.5 749.983 69.9 762.783 74.7C775.583 79.5 786.583 85 795.783 91.2L777.483 124.8ZM923.988 285C911.588 285 900.788 282.2 891.588 276.6C882.388 271 875.188 263.6 869.988 254.4V345.9H829.788V124.8H864.888V151.8C870.688 142.6 878.188 135.4 887.388 130.2C896.788 124.8 907.388 122.1 919.188 122.1C933.388 122.1 945.988 125.8 956.988 133.2C967.988 140.4 976.688 150.2 983.088 162.6C989.488 174.8 992.688 188.3 992.688 203.1C992.688 218.5 989.688 232.4 983.688 244.8C977.888 257 969.788 266.8 959.388 274.2C949.188 281.4 937.388 285 923.988 285ZM910.488 250.8C918.688 250.8 925.788 248.6 931.788 244.2C937.988 239.6 942.788 233.7 946.188 226.5C949.788 219.1 951.588 211.3 951.588 203.1C951.588 194.3 949.688 186.4 945.888 179.4C942.088 172.2 936.888 166.6 930.288 162.6C923.888 158.4 916.488 156.3 908.088 156.3C900.488 156.3 892.888 158.8 885.288 163.8C877.688 168.8 872.588 175.1 869.988 182.7V219.6C873.588 228.4 879.088 235.8 886.488 241.8C893.888 247.8 901.888 250.8 910.488 250.8ZM1092.53 285C1075.33 285 1060.53 281.3 1048.13 273.9C1035.93 266.3 1026.53 256.3 1019.93 243.9C1013.33 231.5 1010.03 218.1 1010.03 203.7C1010.03 189.1 1013.33 175.6 1019.93 163.2C1026.73 150.8 1036.23 140.9 1048.43 133.5C1060.83 125.9 1075.53 122.1 1092.53 122.1C1109.53 122.1 1124.13 125.9 1136.33 133.5C1148.73 140.9 1158.23 150.8 1164.83 163.2C1171.43 175.6 1174.73 189.1 1174.73 203.7C1174.73 218.1 1171.43 231.5 1164.83 243.9C1158.23 256.3 1148.73 266.3 1136.33 273.9C1124.13 281.3 1109.53 285 1092.53 285ZM1051.43 203.7C1051.43 212.9 1053.23 221.1 1056.83 228.3C1060.43 235.3 1065.33 240.8 1071.53 244.8C1077.73 248.8 1084.73 250.8 1092.53 250.8C1100.13 250.8 1107.03 248.8 1113.23 244.8C1119.43 240.6 1124.33 235 1127.93 228C1131.73 220.8 1133.63 212.6 1133.63 203.4C1133.63 194.4 1131.73 186.4 1127.93 179.4C1124.33 172.2 1119.43 166.6 1113.23 162.6C1107.03 158.4 1100.13 156.3 1092.53 156.3C1084.73 156.3 1077.73 158.4 1071.53 162.6C1065.33 166.6 1060.43 172.2 1056.83 179.4C1053.23 186.4 1051.43 194.5 1051.43 203.7ZM1293.71 273.9C1288.31 276.3 1281.61 278.7 1273.61 281.1C1265.81 283.5 1257.71 284.7 1249.31 284.7C1241.91 284.7 1235.11 283.4 1228.91 280.8C1222.71 278.2 1217.71 274.1 1213.91 268.5C1210.31 262.7 1208.51 255.2 1208.51 246V155.7H1187.81V124.8H1208.51V73.8H1248.71V124.8H1281.71V155.7H1248.71V232.5C1248.71 237.9 1250.11 241.8 1252.91 244.2C1255.91 246.6 1259.51 247.8 1263.71 247.8C1267.91 247.8 1272.01 247.1 1276.01 245.7C1280.01 244.3 1283.21 243.1 1285.61 242.1L1293.71 273.9Z" fill="#454545"/>
<path d="M44.1 69L101.7 232.8L158.7 69H202.2L121.5 282H81.6L0.6 69H44.1Z" fill="#454545"/>
<path d="M133.1 69L190.7 232.8L247.7 69H291.2L210.5 282H170.6L89.6 69H133.1Z" fill="#FF5D5D"/>
<rect x="1160" y="327" width="50" height="50" fill="#454545"/>
<rect x="1247" y="327" width="50" height="50" fill="#FF5D5D"/>
</svg>
